M48
;GenerationSoftware,Autodesk,EAGLE,9.6.2*%
;CreationDate,2022-05-04T14:01:55Z*%
FMAT,2
ICI,OFF
METRIC,TZ,000.000
T11C0.500
T10C0.600
T9C0.700
T8C0.813
T7C0.914
T6C1.016
T5C1.100
T4C1.500
T3C2.100
T2C2.500
T1C3.175
%
G90
M71
T1
X33020Y5080
X33020Y39370
T2
X7485Y2266
X45845Y6985
X25265Y2266
X10285Y6985
X2239Y6985
X102100Y16236
X28065Y6985
X55579Y6985
X104900Y20955
X96854Y20955
X102100Y2266
X20019Y6985
X104900Y6985
X96854Y6985
X60825Y2266
X78605Y2266
X63625Y6985
X81405Y6985
X73359Y6985
X43045Y2266
X37799Y6985
T3
X24765Y25455
X78105Y16455
X78105Y25455
X60325Y16455
X60325Y25455
X6985Y16455
X6985Y25455
X24765Y16455
X42545Y16455
X42545Y25455
T4
X7585Y11731
X78705Y11731
X60925Y11731
X102200Y11731
X102200Y25701
X25365Y11731
X43145Y11731
T5
X49545Y23455
X85105Y18455
X13985Y18455
X13985Y23455
X49545Y18455
X49545Y20955
X67325Y18455
X67325Y20955
X67325Y23455
X85105Y20955
X85105Y23455
X31765Y18455
X31765Y20955
X31765Y23455
X13985Y20955
T6
X92710Y30480
X92710Y13970
X28575Y13970
X31115Y30480
X31115Y13970
X28575Y30480
X33655Y13970
X33655Y30480
X38735Y13970
X38735Y30480
X97790Y13970
X95250Y13970
X95250Y30480
X36195Y13970
X36195Y30480
X97790Y30480
T7
X16510Y36830
X16510Y34290
X13970Y36830
X13970Y34290
X11430Y36830
X11430Y34290
X8890Y36830
X8890Y34290
X6350Y36830
X6350Y34290
T8
X66040Y30480
X62865Y38100
X62865Y40640
X78105Y30480
X80645Y30480
X99060Y40005
X99060Y37465
X96520Y37465
X96520Y40005
X92710Y26035
X92710Y18415
X92710Y3175
X92710Y10795
X67945Y35560
X65405Y35560
X72390Y38100
X72390Y33020
X74930Y35560
X72390Y35560
X15240Y9525
X15240Y6985
X68580Y9525
X68580Y6985
X86995Y9525
X86995Y6985
X15240Y15240
X15240Y12700
X50800Y9525
X50800Y6985
X66040Y33020
X62865Y30480
X62865Y33020
X66040Y40640
X66040Y38100
X52705Y24765
X52705Y17145
X82550Y13970
X90170Y13970
X34925Y18415
X34925Y26035
X70485Y24130
X70485Y16510
X17145Y18415
X17145Y26035
X93345Y38100
X93345Y33020
X60325Y38100
X60325Y33020
X79375Y33020
X79375Y38100
X38735Y33020
X38735Y38100
X57150Y31750
X54610Y31750
X52070Y31750
X49530Y31750
X46990Y31750
X24765Y34290
X24765Y31750
X27305Y39370
X27305Y36830
X44450Y31750
X46990Y39370
X44450Y39370
X49530Y39370
X52070Y39370
X41910Y31750
X41910Y39370
X54610Y39370
X57150Y39370
T9
X90170Y31750
X82550Y31750
X85090Y31750
X87630Y31750
X90170Y39370
X87630Y39370
X85090Y39370
X82550Y39370
T10
X82550Y36195
X21590Y35560
X38735Y40640
X29845Y33020
X100965Y31750
X105410Y40005
X62865Y35560
X53340Y35560
T11
X53340Y28257
X54610Y28257
X53975Y28257
X103187Y28257
X103822Y28257
X104457Y28257
X4763Y28257
X4128Y28257
X3492Y28257
M30